<?xml version="1.0" encoding="UTF-8"?>
<svg xmlns="http://www.w3.org/2000/svg" width="1200" height="630" viewBox="0 0 1200 630">
  <defs>
    <linearGradient id="bg" x1="0" y1="0" x2="1" y2="1">
      <stop offset="0%" stop-color="#0f172a"/>
      <stop offset="100%" stop-color="#1e293b"/>
    </linearGradient>
    <linearGradient id="accent" x1="0" y1="0" x2="1" y2="0">
      <stop offset="0%" stop-color="#0ea5e9"/>
      <stop offset="100%" stop-color="#22d3ee"/>
    </linearGradient>
  </defs>
  <rect width="1200" height="630" fill="url(#bg)"/>

  <!-- Subtle grid -->
  <g stroke="#1e293b" stroke-width="1" opacity="0.4">
    <line x1="0" y1="100" x2="1200" y2="100"/>
    <line x1="0" y1="200" x2="1200" y2="200"/>
    <line x1="0" y1="300" x2="1200" y2="300"/>
    <line x1="0" y1="400" x2="1200" y2="400"/>
    <line x1="0" y1="500" x2="1200" y2="500"/>
  </g>

  <!-- Mock chart line for visual flair -->
  <path d="M 100 450 L 200 420 L 300 380 L 400 410 L 500 360 L 600 320 L 700 340 L 800 290 L 900 260 L 1000 240 L 1100 220"
        fill="none" stroke="url(#accent)" stroke-width="4" stroke-linecap="round" stroke-linejoin="round"/>
  <path d="M 100 450 L 200 420 L 300 380 L 400 410 L 500 360 L 600 320 L 700 340 L 800 290 L 900 260 L 1000 240 L 1100 220 L 1100 580 L 100 580 Z"
        fill="url(#accent)" opacity="0.08"/>

  <!-- Brand mark + name -->
  <g transform="translate(80, 80)">
    <circle cx="20" cy="20" r="20" fill="url(#accent)"/>
    <text x="60" y="30" font-family="-apple-system, BlinkMacSystemFont, 'Segoe UI', sans-serif" font-size="28" font-weight="600" fill="#f8fafc">
      Rates Engine
    </text>
  </g>

  <!-- Hero text -->
  <text x="80" y="280" font-family="-apple-system, BlinkMacSystemFont, 'Segoe UI', sans-serif" font-size="68" font-weight="700" fill="#f8fafc">
    Pricing for every asset
  </text>
  <text x="80" y="360" font-family="-apple-system, BlinkMacSystemFont, 'Segoe UI', sans-serif" font-size="68" font-weight="700" fill="#f8fafc">
    on Stellar.
  </text>

  <!-- Subtitle -->
  <text x="80" y="450" font-family="-apple-system, BlinkMacSystemFont, 'Segoe UI', sans-serif" font-size="26" font-weight="400" fill="#94a3b8">
    Independent VWAP across on-chain DEXes, classic SDEX, and major exchanges.
  </text>
  <text x="80" y="490" font-family="-apple-system, BlinkMacSystemFont, 'Segoe UI', sans-serif" font-size="26" font-weight="400" fill="#94a3b8">
    Public REST + SSE API. No auth required.
  </text>

  <!-- API base hint -->
  <text x="80" y="580" font-family="ui-monospace, 'SF Mono', Menlo, monospace" font-size="20" font-weight="500" fill="#22d3ee">
    api.ratesengine.net  ·  ratesengine.net  ·  docs.ratesengine.net
  </text>
</svg>
